<?xml version="1.0" encoding="utf-8"?>
<!-- Generator: Adobe Illustrator 27.0.1, SVG Export Plug-In . SVG Version: 6.00 Build 0)  -->
<svg version="1.1" id="Livello_1" xmlns="http://www.w3.org/2000/svg" xmlns:xlink="http://www.w3.org/1999/xlink" x="0px" y="0px"
	 viewBox="0 0 192 77" style="enable-background:new 0 0 192 77;" xml:space="preserve">
<style type="text/css">
	.st0{fill:#007FC8;}
	.st1{fill:#009DB1;}
	.st2{fill:#6AB651;}
	.st3{fill:#F18626;}
	.st4{fill:#646363;}
</style>
<g>
	<path class="st0" d="M7.7,34.6V12.5c0-2.7,2.1-4.8,4.8-4.8h79.7V0H12.5C5.6,0,0,5.6,0,12.5v22.1L7.7,34.6L7.7,34.6z"/>
	<path class="st1" d="M99.8,7.7h79.7c2.7,0,4.8,2.2,4.8,4.8v22.1h7.7V12.5C192,5.6,186.4,0,179.5,0H99.8L99.8,7.7L99.8,7.7z"/>
	<path class="st2" d="M184.3,42.4v22.1c0,2.7-2.1,4.8-4.8,4.8H99.8V77h79.7c6.9,0,12.5-5.6,12.5-12.5V42.4H184.3z"/>
	<path class="st3" d="M92.2,69.3H12.5c-2.7,0-4.8-2.2-4.8-4.8V42.4H0v22.1C0,71.4,5.6,77,12.5,77h79.7V69.3z"/>
	<g>
		<g>
			<path class="st4" d="M15.4,15.4H40c12.9,0,22,4.9,22,23.2c0,17.1-9.8,23-22.7,23H15.4V15.4z M32.7,50.3h3.6
				c6.3,0,7.7-4.7,7.7-12.2c0-7.8-1.5-12.3-7.7-12.3h-3.5V50.3z"/>
			<polygon class="st4" points="101.9,15.4 96.1,40.1 96,40.1 95.9,40.1 90.1,15.4 66.9,15.4 66.9,61.6 81.6,61.6 81.8,30.9 
				89.2,61.6 102.8,61.6 110.7,31.2 110.9,61.6 126.4,61.6 126.4,15.4 			"/>
			<path class="st4" d="M132.9,15.4h28.8c7,0,16.5,3.4,16.5,15.5c0,11.8-7.6,16.6-16.6,16.6h-11.4v14h-17.3V15.4z M149.7,37.1h2.8
				c4.1,0,8.3-0.8,8.3-5.8c0-4.8-4.2-5.4-8.4-5.4h-2.8V37.1z"/>
		</g>
	</g>
</g>
</svg>
